<svg xmlns="http://www.w3.org/2000/svg" viewBox="0 0 1000 1000" style="max-width:100%"><g fill="currentColor"><path d="M475.41 44.62c6.79-1.49 13.17 2.25 19.18 4.88 22.31 10.05 40.04 29.11 49.59 51.54 12.36 1.97 24.35 6.22 35.15 12.57 3.89 2.27 8.11 4.72 10.08 9 2.2 4.17 1.77 9.15.13 13.42 1.66 5.5.75 11.26.04 16.84-2.5 17.54-9.76 34.37-20.88 48.18 8.96 2.93 17.89 5.96 26.7 9.32.61-7.4 7.11-13.76 14.6-13.76 7.94-.44 15.29 6.44 15.39 14.38.32 4.44-1.81 8.57-4.75 11.75 12.66 6.72 24.57 14.77 35.91 23.52.55-2.96 1.39-5.98 3.41-8.31 6.25-8.02 20.47-7.38 25.79 1.36 3.93 5.85 2.85 14.37-2.38 19.07-2.11 2.08-4.94 3.11-7.69 3.97 10.76 9.85 20.54 20.76 29.48 32.27 2.31-8.68 12.8-13.83 20.96-9.72 9.86 4.29 11.73 19.17 3.91 26.22-2.69 2.68-6.45 3.74-10.11 4.2 10.58 16.4 19.28 33.99 26.19 52.23 6.69-6.46 19.09-5.99 24.51 1.87 4.77 6.36 3.17 16.32-3.38 20.83-3.7 2.94-8.6 3.06-13.1 2.82 4.58 16.85 7.38 34.19 8.5 51.62 5.87-1.78 12.92-1.45 17.51 3.07 6.13 5.48 6.24 16.01.22 21.63-4.44 4.56-11.4 5.1-17.26 3.49-.65 18.07-3.04 36.1-7.32 53.67 4.41-.36 9.2-.12 12.83 2.75 6.49 4.49 8.12 14.33 3.46 20.69-5.2 7.7-17.07 8.51-23.97 2.68-7.2 21.15-17.19 41.34-29.41 60.04 7.15 3.83 10.24 11.75 14.22 18.35 13.83 27.63 7.62 63.72-14.65 85.15-1.69 1.74-4 3.26-4.34 5.86-18.69 80.33-37.46 160.64-56.15 240.96-.97 3.95-1.46 8.29-4.28 11.46-2.82 3.14-5.11 7.05-9.09 8.87-3.84 2-8.27 1.4-12.43 1.48-95.35 0-190.71-.03-286.06.02-4.86.31-10.18-.42-13.76-4.04-2.94-3.13-5.8-6.67-6.87-10.91-19.06-84.34-37.87-168.75-57.01-253.07-6.38-4.24-11.3-10.25-15.95-16.25-2.64-3.25-3.91-7.32-6.15-10.81-10.76-22.2-9.5-49.89 3.76-70.78 2.07-3.28 5.64-5.08 9.19-6.3-10.27-15.44-18.71-32.07-25.59-49.28-6.7.57-14.48 1.73-20.13-2.84-5.83-4.46-7.39-13.4-3.41-19.58 2.8-4.77 8.33-7.32 13.76-7.24a271.26 271.26 0 0 1-9.1-60.56c-6.03 2.23-13.36.69-17.41-4.47-5.68-7.01-4.36-19.08 3.58-23.9 4.22-2.84 9.67-2.79 14.33-1.14 1.33-18.27 4.34-36.47 9.41-54.09-7.2 1.88-15.42-1.89-18.08-8.95-3.22-7.45.9-16.9 8.54-19.61 6.13-2.51 13.3-.15 17.43 4.84 5.51-15.18 12.64-29.78 21.07-43.54-9.3-.51-16.9-10.28-14.4-19.4 1.8-8.05 10.97-13.3 18.83-10.73 4.41 1.22 7.81 4.67 9.71 8.75 10.29-13.21 20.89-26.29 33.38-37.52-5.58-2.53-9.91-8.1-9.63-14.43-.13-8.19 7.52-15.39 15.69-14.75 6.85.11 12.53 5.53 14.2 11.98 9.91-8.07 20.87-14.7 31.87-21.15-5.84-6.36-6.08-17.51.54-23.41 5.51-5.24 14.98-5.15 20.39.18 2.93 2.61 4.27 6.43 4.86 10.21 9.12-3.92 18.4-7.53 27.91-10.39-14.01-13.25-22.72-31.52-26.52-50.27-.84-5.06-1.68-10.17-1.6-15.31.23-3.93 2.12-7.75 5.19-10.23 3.14-2.49 5.45-6.14 9.38-7.51 6.49-2.42 13.11-4.75 19.99-5.72 7.11-27.02 27-50.03 52.04-62.14 3.39-1.89 6.06-5.17 10.05-5.88m-30.13 67.19c8.85 1.23 17.38 3.97 25.64 7.31 11.77-8.63 25.47-14.58 39.8-17.38-7.19-11.08-17.58-20.19-29.74-25.41-15.73 6.85-28.91 19.67-35.7 35.48m53.15 25.39c15.35 14.56 26.2 33.86 30.02 54.71 2.73.48 5.46.93 8.2 1.36 2.49-5.44 7.63-8.9 10.84-13.84 8.95-11.98 12.79-26.9 13.56-41.64-19.19-10.35-43.18-10.23-62.62-.59m-88.9 7.11c2.03 11.07 6.45 21.76 13.38 30.67 5.66 6.92 12.68 12.5 19.66 18.02 17.97-2.9 36.2-4.35 54.4-3.75-5.88-18.05-19.03-34.01-36.58-41.7-15.62-8.15-34.24-8.11-50.86-3.24m108.15 76.77c39.15 18.5 73.18 47.26 98.68 82.18 3.96-6.06 12.29-8.79 18.92-5.62 7.21 3.02 10.88 12.17 7.75 19.34-1.87 4.91-6.5 8.1-11.46 9.32 7.95 13.75 15 28.07 20.56 42.97 5.05-3.57 12.17-4.19 17.41-.65 8.84 5.43 9.27 19.88 1.06 26.07-2.64 2.19-6.07 3.01-9.42 3.26 4.62 17.62 7.48 35.7 8.53 53.88 5.17-2.92 11.96-3.1 16.84.53 6.81 4.57 8.37 14.93 3.25 21.32-4.4 6.07-13.26 7.53-19.67 3.9-.26 16.31-2.44 32.5-5.56 48.5 3.69-.01 7.51.7 10.47 3.05 6.72 4.76 8 15.23 2.64 21.48-4.71 6.07-13.92 7.13-20.23 2.97-6.09 19.6-14.28 38.56-24.6 56.31 17.05-.01 34.1-.02 51.15 0 21.61-28.55 36.81-61.93 44.16-96.98 8.23-39.1 6.63-80.22-4.75-118.52-10.57-36.2-29.79-69.79-55.48-97.38-14.16-15.68-30.84-28.87-48.53-40.34-15.83-9.69-32.51-18.21-50.22-23.88-16.62-5.89-33.9-10.3-51.5-11.71M394.81 237.9c-15.79 6.33-30.47 15.03-44.69 24.29-32.57 22.5-59.61 52.97-77.97 88.04-23.59 45-32.65 97.48-25.19 147.75 5.74 40.1 21.8 78.67 46.14 111.04.84 1.28 2.58.7 3.85.9 19.27-.07 38.55-.04 57.82-.02-8.57-13.9-15.97-28.55-21.95-43.75-6.02 2.82-13.85 2.53-18.92-2.07-5.72-4.89-6.63-14.23-2.02-20.16 2.64-3.73 7.05-5.62 11.47-6.19-4.79-16.85-7.87-34.16-9.33-51.61-5.04 2.15-11.17 2-15.62-1.41-8.45-5.9-8.31-20.33.34-25.98 4.12-3.01 9.56-3.08 14.29-1.65.37-22.21 3.35-44.36 8.86-65.89-2.58-.59-5.25-1.15-7.45-2.69-7.82-5.03-8.93-17.23-2.89-24.04 4.78-5.66 13.51-6.48 19.67-2.62 6.72-18.2 15.6-35.56 26.02-51.9-6.95-.95-13.05-6.75-13.41-13.92-.88-8.1 6-15.93 14.14-16.12 6.13-.49 11.84 3.35 14.58 8.69 13.58-17.63 29.72-33.16 47.24-46.82 9.76-6.95 19.37-14.28 30.17-19.57-18.89 3.16-37.47 8.32-55.15 15.7m-33.85 130.19c-17.99 44.65-22.56 94.53-13.45 141.77 6.98 35.96 21.63 70.55 43.45 100.04 27.39-.04 54.79-.01 82.18-.01-.23-122.12-.02-244.24-.1-366.36-50.95 25.95-91.26 71.42-112.08 124.56m142.05-120.8c-.02 17 0 33.99-.01 50.99 5.52-.76 11.53 1.07 14.91 5.69 4.76 5.88 3.94 15.27-1.76 20.25-3.48 3.35-8.49 4.3-13.15 3.78-.01 13.01.02 26.03-.02 39.05 4.63-2.04 10.21-2.35 14.64.36 7.32 3.95 9.82 14.36 5.08 21.19-4.02 6.53-13 8.52-19.72 5.16.03 18.01.04 36.02 0 54.03 6.01-4.92 15.6-4.58 20.81 1.35 5.88 6.03 5.05 16.88-1.69 21.93-5.44 4.51-13.68 4.08-19.12-.2.03 18.64.03 37.28 0 55.92 6.01-4.92 15.62-4.58 20.83 1.36 5.87 6.05 5.02 16.91-1.75 21.95-5.44 4.48-13.65 4.04-19.08-.23-.02 20 .14 40.01-.09 60.02 31.57-.06 63.15.09 94.72-.08 23.94-35.52 38.52-77.27 41.76-119.99 3.52-40.22-3.11-81.23-18.67-118.46-22.47-53.74-64.55-99.61-117.69-124.07M272.7 639.81c-5.49 12.02-4.87 26.41 1.3 38.04 3.39 6.87 8.28 13.56 15.5 16.7 5.1 2.74 6.87 8.63 7.72 13.97 18.44 82.13 36.93 164.24 55.41 246.37 92.08-.02 184.16.01 276.24-.02 19.22-82.25 38.34-164.52 57.56-246.77 1.08-4.26 4.15-7.62 7.53-10.26 7.69-6.17 13.01-15.05 15.19-24.63 2.61-11.31.27-23.64-5.92-33.4-104.08.07-208.16-.01-312.25.04-7.66.6-15.31-.25-22.98-.01-31.77-.02-63.53.03-95.3-.03Z"/><path d="M325.19 692.25c41.58-.31 83.18-.01 124.77-.15 3.58-.16 7.29.57 10.23 2.74 5.31 3.65 7.78 10.95 5.56 17.05-1.97 6.18-8.3 10.54-14.78 10.19-41.67-.03-83.34.03-125-.02-7.8-.11-14.5-7.36-14.18-15.12-.09-7.36 6.05-14.13 13.4-14.69ZM484.33 694.54c5.07-1.65 10.5-.64 15.73-.91 5.52-.31 11.07 2.64 13.79 7.48 3.43 5.73 2.34 13.69-2.53 18.27-3.21 3.23-7.87 4.52-12.33 4.24-5.78-.3-12.17 1.06-17.32-2.29-6.18-3.66-8.81-12.05-5.89-18.6 1.58-3.76 4.74-6.77 8.55-8.19Z"/></g></svg>