<svg xmlns="http://www.w3.org/2000/svg" viewBox="0 0 1000 1000" style="max-width:100%"><g fill="currentColor"><path d="M420.5 282.91c-1.09-7.99 5.39-15.93 13.42-16.51 6.7-.8 13.51 3.56 15.65 9.95 1.31 3.4.77 7.09 0 10.54a38.65 38.65 0 0 1 7.84 4.56c26.48 18.58 48.75 42.93 65.64 70.47 16.85 27.58 27.99 58.54 33.11 90.43 2.05-31.66-2.61-63.78-14.03-93.4-3.21-6.73-1.27-14.47.55-21.3-6.34-1.92-11.25-7.91-11.1-14.66-.52-6.1 2.83-12.36 8.42-14.98 6.43-3.23 14.98-1.05 18.94 4.99 3.46 4.95 3.24 11.59 1.12 17.03 7.88 3.6 14.5 9.33 21.46 14.39 36.06 28.44 63.36 67.69 78.16 111.13 10.37-29.22 14.73-60.54 12.37-91.46-.76-5.73 2.05-11.42 6.76-14.65-4.57-2.86-7.9-7.9-7.65-13.42-.13-7.87 6.94-14.93 14.82-14.77 7.61-.31 14.65 6.13 15.09 13.72.57 5.38-2.19 10.71-6.6 13.74 3.33.78 6.55 2.3 8.79 4.97 22.79 25.64 39.81 56.29 49.93 89.05 17.68 56.4 14.35 119.08-9.23 173.29-2.62 6.49-6.16 12.56-8.97 18.96 2.39 7.48 4.89 15.07 5.04 23.01 1.66 21.81-6.75 44.29-22.81 59.23-1.41 1.36-3.03 2.76-3.28 4.83-18.55 79.64-37.13 159.28-55.69 238.92-1.26 5.07-1.75 10.74-5.65 14.63-3.48 4.72-8.18 9.49-14.54 9.22-97.35.06-194.7-.02-292.05.04-4.89.3-10.26-.39-13.86-4.05-3.17-3.33-6.15-7.18-7.08-11.78-18.93-84.04-37.74-168.12-56.76-252.15-21.75-15.8-32.84-44.45-28.44-70.85.77-5.3 2.39-10.42 4.11-15.47-18.95-22.97-31.61-50.79-38.34-79.7-2.2-11.85-3.54-23.84-4.39-35.85-1.95-52.18 17.69-105.07 54.31-142.47 1.56-1.49 3.31-2.77 5.06-4.03-1.94-5.21-1.58-11.45 2.13-15.81 4.67-6.06 14.16-7.37 20.31-2.82 6.16 4.16 8.2 13.13 4.46 19.55-1.34 2.61-3.71 4.41-6.03 6.08 1.1 3.37 1.36 6.91.97 10.43-1.56 22.27.58 44.64 4.76 66.52 16.48-48.85 49-92.34 91.83-121.17 2.96-2 6.58-2.46 9.96-3.4-.26-7.83 5.9-15.36 13.88-15.78 8.42-.98 16.49 6.45 16.23 14.9.23 6.84-4.88 12.72-11.19 14.75-.21 3.34-1.13 6.58-2.78 9.5-19.98 39.11-27.63 84.36-21.84 127.88 2.38 20.16 8.33 39.74 16.15 58.43 24.66-29.84 41.16-66.36 46.98-104.65 6.3-39.48 1.49-80.66-13.72-117.64-1.21-3.02-2.8-6-2.99-9.31-.21-3.42.77-6.75 1.67-10.01-5.66-1.96-10.42-6.89-10.9-13.05m52.51 171.02c-9.01 39.6-27.7 77.04-54.62 107.5-1.39 1.45-3.05 2.6-4.66 3.79 10.24 16.54 22.74 31.75 37.3 44.68 7.16-.07 14.31.05 21.47-.06 2.28-2.81 5.18-4.96 7.98-7.2a206.637 206.637 0 0 0 37.43-40.75c1.14-1.43 1.23-3.29 1.51-5.01.49-3.89 1.97-7.54 2.84-11.34 9.37-36.36 9.05-75.13-.62-111.4-8.76-32.96-25.48-63.74-48.41-88.99 8.06 35.67 7.68 73.12-.22 108.78m107.74-70.24c9.98 45.15 7.12 93.07-8.27 136.69-11.66 33.45-30.82 64.2-55.55 89.57 37.93-.17 75.85.01 113.78-.09 15.89-45.06 16.68-95.26 1.93-140.73-10.21-32.08-28.31-61.47-51.89-85.44m-229.5 13.69c-23.52 28.81-38.79 64.09-44.65 100.76-.36 2.12-1.14 4.13-1.92 6.13 4.05 9.54 9.63 18.32 14.76 27.29 18.71 29.8 44.29 55.29 74.34 73.64 2.12 1.24 3.94 2.9 5.66 4.65 3.26.04 6.53.03 9.8.04-23.58-27.57-40.14-60.73-49.58-95.66-10.88-41.45-11.01-85.76.05-127.19-2.76 3.5-5.73 6.83-8.46 10.34m350.54 4.21c-2.98 34.64-12.93 68.83-29.96 99.2-1.28 1.89-.6 4.2-.41 6.3 4.15 34.41.97 69.67-9.19 102.81 13.93-.03 27.85-.01 41.78-.03 3.08-.03 6.06.88 8.99 1.77 16.69-34.68 23.83-73.85 20.76-112.2-2.67-34.55-13.75-68.38-31.97-97.85M231.09 512c.73 11.03 1.94 22.06 3.95 32.94 3.21 12.89 7.31 25.66 13.45 37.48 5.07 9.87 10.6 19.61 17.82 28.09 2.54-.41 5.11-.69 7.68-.65 24.98.07 49.96-.02 74.94.05-55.32-45.16-89.88-113.75-95.86-184.68-15.02 26.23-22.56 56.58-21.98 86.77m42.21 128.11c-1.51 1.21-1.99 3.16-2.54 4.92-4.95 15.76.5 33.69 12.06 45.16 2.79 3.07 7.27 3.81 9.95 7.02 3.28 3.46 3.75 8.39 4.79 12.82 18.34 81.62 36.71 163.24 55.07 244.85 92.08 0 184.16.02 276.24-.01 19.22-82.24 38.33-164.52 57.56-246.76 1.12-4.52 4.52-7.93 8.07-10.72 7.43-6.13 12.52-14.86 14.65-24.21 2.61-11.31.25-23.61-5.92-33.38-21.38.27-42.8-.42-64.16.47-6.35-.7-12.75-.37-19.12-.43H283.02c-3.24.06-6.52-.3-9.72.27Z"/><path d="M325.17 692.25c41.28-.32 82.57 0 123.85-.15 4.81-.35 9.93.92 13.29 4.56 5.17 5.11 5.66 14.01 1.07 19.65-2.89 3.76-7.59 5.94-12.32 5.77-41.34 0-82.69-.02-124.03.01-7.79.4-14.97-6.3-15.22-14.06-.67-7.72 5.63-15.2 13.36-15.78ZM484.31 694.54c5.06-1.63 10.48-.67 15.7-.91 6.05-.37 12.08 3.22 14.52 8.8 3.06 6.46.65 14.88-5.4 18.71-5.35 3.68-12.11 2.17-18.17 2.46-6.13.44-12.4-2.95-14.94-8.62-3.83-7.57.3-17.67 8.29-20.44Z"/></g></svg>