<svg xmlns="http://www.w3.org/2000/svg" viewBox="0 0 1000 1000" style="max-width:100%"><g fill="currentColor"><path d="M480.04 27.02c6.02-4.87 15.83-3.81 20.55 2.38 18.51 20.56 34.02 43.72 46.89 68.2 17.62 33.96 30.72 70.22 39.47 107.46 7.65 31.04 12.32 62.81 14.45 94.7 26.29-24.97 46.49-56.1 59.39-89.93 11.14-28.94 17.08-59.83 17.91-90.81-.02-3.45-2.12-6.56-1.79-10.06.23-10.38 12.21-18.43 21.93-14.85 3.85 1.39 7.21 4.39 8.66 8.28.8 2.13 1.51 4.36 3.07 6.09 23.01 28.71 39.76 62.21 50.09 97.46 17.42 60.18 16.01 125.77-4.61 184.97 48.1-9.13 99.09-.6 141.94 22.93 7.58 4.3 9.51 15.58 3.8 22.15-3.59 3.69-7.35 8.01-12.74 8.81-36.68 6.19-71.07 23.78-98.54 48.71-35.08 31.47-59.39 74.02-71.5 119.38 6.96 3.89 9.97 11.66 13.9 18.15 13.86 27.65 7.62 63.8-14.69 85.23-1.68 1.71-3.96 3.22-4.29 5.8-18.69 80.35-37.47 160.68-56.17 241.02-.96 3.93-1.45 8.26-4.27 11.41-2.82 3.14-5.11 7.05-9.1 8.86-3.82 2-8.23 1.4-12.37 1.48-94.66 0-189.33-.01-283.99.01-5.03.11-10.61.37-14.73-3.05-3.79-3.4-7.16-7.74-8.24-12.82-18.94-84.04-37.73-168.12-56.77-252.13-6.93-4.66-12.22-11.28-17.16-17.91-3.97-7.26-8.21-14.58-9.81-22.81-4.51-16.79-2.57-35.17 5.07-50.77 1.98-3.79 3.83-8.03 7.64-10.35 2.36-1.67 5.26-2.13 8.04-2.61-7.98-36.55-24.36-71.37-48.3-100.2-26.85-32.75-63.63-57.61-104.66-68.61-12.08-3.49-24.57-5.44-37.1-6.46-5.12-.36-9.87-3.63-12.1-8.24-2.65-5.02-1.23-10.92-.11-16.16 1.89-6.57 8.59-9.52 13.79-13.07 49.14-31.58 110.77-43.57 167.98-31.04-20.83-69.02-13.32-146.31 21.42-209.59 18.79-34.82 45.89-65.2 78.54-87.57 5.02-3.9 11.6-2.55 17.46-2.62 8.87.73 15.36 10.6 12.52 19.04-6.59 17.98-11.85 36.55-14.17 55.6-6.19 44.04.23 89.63 17.58 130.52-.49-51.09 9.79-102.44 31.23-148.9 17.44-37.32 42.05-71.7 73.89-98.08m-47.15 111.67c-26.77 58.81-34.22 125.86-22.94 189.35.38 4.65 4.24 7.72 6.63 11.39 31.71 43.86 49.19 97.58 50.43 151.62 1.06 40.71-6.99 81.65-23.62 118.84 18.19-.02 36.38 0 54.58-.01 27.89-39.95 46.66-85.7 58.55-132.8 12.26-48.61 17.38-98.94 16.29-149.04-1.12-42.56-6.65-85.08-17.55-126.27-10.77-41.17-26.91-81.19-49.96-117.06-5.41-8.43-11.59-16.33-17.59-24.35-23.22 22.16-41.26 49.35-54.82 78.33m-145.27 37.9c-32.69 61.67-36.44 137.62-10.76 202.44 3.42 1.29 6.79 2.69 10.12 4.21-7.31-26.05-11.05-53.1-11.19-80.16-.53-8.27 6.87-15.97 15.19-15.54 7.73-.17 14.74 6.68 14.74 14.41.11 34.71 6.78 69.39 19.73 101.6.43 1.11 1.14 2.13 2.14 2.83 51.76 36.79 87.83 94.05 101.14 155.92 7.63-29.41 10.36-60.17 7.02-90.41-4.21-39.76-18.15-78.61-41.05-111.45-7.26-10.67-16.05-20.19-23.19-30.94-41.69-60.94-56.1-139.42-40.08-211.37-17.66 16.92-32.57 36.73-43.81 58.46m418.2-21.94c-8.98 63.96-38.67 125.76-86.74 169.46-5.21 4.49-10.13 9.47-16.17 12.85.35 56.7-6.84 113.6-22.96 168.01-10.89 36.72-25.94 72.32-46.12 104.92 8.38-.02 16.76 0 25.14-.01 6.65-40.2 21.25-79.2 43.71-113.25 19.17-29.06 43.97-54.67 73.35-73.48-.2-2.68-.46-5.44.43-8.03 12.06-36.78 18.42-75.39 19.32-114.07-.13-5.24 2.66-10.42 7.18-13.11 5-3.15 11.87-2.86 16.62.65 4.25 3 6.58 8.28 6.17 13.45-.85 34.57-5.7 69.07-14.82 102.44 3.57-1.43 7.17-2.8 10.79-4.1.27-2.39.53-4.81 1.46-7.06 28.1-69.69 25.96-151.17-6.63-218.98-3.35-6.67-6.39-13.59-10.73-19.69M114.64 411.44c-1.05.51-2.03 1.15-3.02 1.78 15.49 3.88 30.61 9.28 44.97 16.28 38.33 18.52 71.08 47.84 94.86 83.06 19.98 29.24 33.61 62.65 40.72 97.31 19.93.03 39.86 0 59.8.02-10.02-53.61-36.91-104.63-78.04-140.82-3.74-3.14-5.92-8.07-5.43-12.95.55-7.71 7.78-14.13 15.52-13.65 4.89-.02 8.94 3.04 12.25 6.32 46.19 41.72 75.78 100.06 86.32 161.09 7.48 0 14.97.01 22.45 0-1.95-40.16-13.81-79.86-34.79-114.19-16.85-27.23-39.06-51.55-66.14-68.85-7.09-5.25-15.12-8.98-22.87-13.11-27.88-13.84-59.17-20.42-90.25-19.93-26.27.8-52.44 6.67-76.35 17.64m649.31 8.52c-38.47 6.54-74.27 25.78-102.42 52.59-38.25 36.29-62.75 85.71-72.13 137.33 14.72.01 29.43-.01 44.14.01.51-2.28 1.07-4.55 1.79-6.76 10.76-34.49 25.98-67.68 46.08-97.74 1.97-2.92 3.77-6.18 6.81-8.14 5.26-3.63 12.88-3.31 17.8.79 5.94 4.6 7.35 13.83 3.02 19.98-19.38 28.12-34.08 59.34-44.4 91.86 8.04.01 16.09-.01 24.14.01 12-47.66 35.8-92.7 70.36-127.84 24.67-25.24 54.85-45.28 88.15-57.14-26.95-7.84-55.66-9.86-83.34-4.95M272.69 639.82c-7.91 16.98-2.73 38.18 10.65 50.86 2.74 2.76 6.97 3.45 9.44 6.56 3.25 3.4 3.73 8.26 4.74 12.64 18.36 81.67 36.73 163.34 55.11 245 92.08 0 184.16.02 276.24-.01 19.22-82.24 38.34-164.51 57.56-246.75 1.07-4.27 4.15-7.64 7.53-10.28 7.69-6.17 13.02-15.06 15.19-24.65 2.61-11.3.26-23.62-5.92-33.38-143.51.05-287.03.04-430.54.01Z"/><path d="M499.37 147.64c6.42-2.11 14.09.75 17.36 6.69 2.14 3.93 3.94 8.02 5.84 12.07 1.61 3.71 3.78 7.46 3.43 11.66-.19 7.05-6.02 13.36-13.01 14.16-6.35.95-12.99-2.74-15.58-8.61-2.4-5.51-5.08-10.9-7.55-16.38-3.23-7.71 1.53-17.31 9.51-19.59ZM293.47 214.62c7.35-1.66 15.37 3.1 17.38 10.35 1.78 5.41-.77 10.83-1.76 16.12-1.27 5.74-1.66 12.49-6.77 16.35-6.76 5.92-18.45 3.78-22.61-4.21-3.65-5.96-1-12.93.25-19.19 1.08-4.15 1.56-8.58 3.65-12.39 2.1-3.6 5.79-6.19 9.86-7.03ZM529.24 233.29c8.03-2.97 17.71 2.4 19.39 10.8 20.99 92.93 11.36 193.26-30.33 279.24-2.86 7.31-11.82 11.46-19.17 8.48-7.9-2.68-12.15-12.6-8.48-20.13 39.2-80.12 48.35-173.8 28.84-260.57-1.98-7.33 2.53-15.55 9.75-17.82ZM704.34 239.59c8.54-3.27 18.87 3.1 19.72 12.2.35 5.78 2.05 12.12-.93 17.5-3.18 6.26-11.12 9.5-17.77 7.23-5.89-1.77-10.22-7.47-10.44-13.6-.28-5.1-1.63-10.55.66-15.38 1.66-3.71 4.92-6.63 8.76-7.95ZM229.42 410.57c3.89-1.32 8.24-.84 11.87 1.04 5.12 2.51 10.2 5.15 15.1 8.1 5.78 3.35 8.59 10.84 6.54 17.19-1.83 6.32-8.22 10.92-14.81 10.58-4.98.01-8.94-3.32-13.17-5.45-4.95-2.84-11.24-4.49-13.96-10.01-4.6-7.78-.23-18.87 8.43-21.45ZM735.34 444.51c6.49-2.76 14.66-.14 18.32 5.89 3.7 5.62 2.88 13.64-1.87 18.4-4.35 4.32-8.92 8.42-13.19 12.83-4.37 4.51-11.62 5.84-17.25 3.01-6.43-2.94-9.96-10.79-7.93-17.56 1.43-5.43 6.32-8.7 9.94-12.6 3.84-3.47 7.16-7.82 11.98-9.97ZM325.18 692.25c41.94-.3 83.9-.03 125.84-.13 6.72-.35 13.25 4.4 14.95 10.91 2.06 6.62-1.36 14.31-7.53 17.39-3.79 2.13-8.28 1.62-12.44 1.67-40-.04-80 .02-119.99-.03-7.78-.09-14.5-7.3-14.22-15.04-.13-7.39 6.02-14.2 13.39-14.77ZM484.39 694.52c5.02-1.62 10.4-.63 15.59-.89 5.09-.28 10.23 2.11 13.13 6.33 3.61 4.96 3.64 12.18.09 17.18-2.87 4.28-8.05 6.73-13.17 6.47-6.34-.34-13.48 1.29-19-2.71-6.67-4.38-8.49-14.35-3.79-20.8 1.71-2.57 4.28-4.49 7.15-5.58Z"/></g></svg>