<svg xmlns="http://www.w3.org/2000/svg" viewBox="0 0 1000 1000" style="max-width:100%"><g fill="currentColor"><path d="M472.28 272.31c5.97-6.79 17.92-6.08 23.03 1.39 4.58 5.85 2.31 13.56 2.3 20.33 7.76.79 15.33 2.75 22.81 4.91 2.7-6.66 3.58-15.22 10.53-19.01 7.53-4.63 18.46-.8 21.44 7.52 3.26 8.33-2.65 16.19-4.68 24.05 7.09 4.18 13.78 9.01 20.08 14.31 5.32-5.87 13.77-6.23 21.07-7.43-.03-7.09-2.63-15.2 2.31-21.29 5.33-7.52 17.61-7.86 23.35-.64 4.92 5.42 3.22 13.17 4.4 19.78 4.71.95 9.74.62 14.54 1.52 8.73.96 17.22 3.26 25.67 5.58 1.81-5.45 3.96-10.77 6.08-16.09 2.88-7.01 11.63-10.72 18.69-7.99 7.51 2.47 11.93 11.49 9.14 18.93-2.1 5.45-4.01 10.99-6.53 16.27 11.12 5.83 21.6 12.88 31.19 21 3.64-3.86 7.51-7.49 11.29-11.21 5.51-5.38 15.14-5.23 20.55.21 5.55 5.11 6.18 14.53 1.22 20.25-3.88 4.18-8.06 8.08-12.14 12.05 9.23 11.29 17.17 23.69 23.41 36.87 5.54-2.03 11.72-4.83 17.61-2.29 8.45 2.99 12.3 14.21 7.37 21.74-2.88 5.3-9.01 6.86-14.35 8.48 5.28 18.64 7.7 38.11 7.06 57.47 5.49 1.28 11.1 2.14 16.49 3.81 7.4 2.67 11.55 11.76 8.62 19.09-2.21 6.39-9.18 10.74-15.91 9.72-4.28-.71-8.47-1.9-12.73-2.73-2.4 13.09-6.52 25.83-12.06 37.92 4.32 3.09 8.65 6.16 12.93 9.32 5.86 4.36 7.49 13.25 3.6 19.43-3.79 6.73-13.16 9.38-19.88 5.56-3.82-2.28-7.23-5.16-10.9-7.65-6.74 9.86-14.18 19.22-22.65 27.65 3.24 5.77 7.04 11.33 8.99 17.72 9.06 25.77 2.58 56.29-16.48 75.92-2 2.34-5.26 3.98-5.8 7.26-18.69 80.34-37.46 160.65-56.16 240.98-.98 3.95-1.45 8.32-4.29 11.48-2.83 3.13-5.1 7.05-9.09 8.86-3.51 1.86-7.58 1.44-11.4 1.49-97.02-.04-194.04.02-291.07-.03-8.27-.07-14.28-7.62-16.63-14.87-19.07-84.37-37.87-168.8-57.03-253.15-6.94-4.59-12.17-11.24-17.11-17.81-3.97-7.27-8.24-14.58-9.82-22.83-4.98-18.39-2.14-38.66 7.35-55.14-7.49-7.24-13.73-15.59-19.78-24.03-4 3.02-8.61 6.08-13.89 5.32-9.11-.57-15.94-10.68-12.89-19.33 1.53-5.99 7.34-8.95 12.03-12.19-5.12-10.79-8.73-22.17-11.62-33.73-5.31 1.36-11.41.82-15.55-3.08-6.13-5.2-6.68-15.38-1.18-21.22 3.05-3.67 7.88-4.81 12.37-5.51-1.39-12.81-.49-25.76 1.12-38.5-5.42-1.13-11.61-2.18-14.98-7.11-5.53-6.95-2.98-18.37 5.03-22.25 5.12-3.03 11.11-1.26 16.46.08 3.43-11.93 8.95-23.11 14.52-34.16-5.13-4.25-12.31-7.35-13.97-14.44-2.68-8.73 4.45-18.55 13.55-18.81 6.94-.78 11.92 4.71 17.14 8.3 4.84-5.99 10.08-11.65 15.52-17.1-3.37-5.32-8.72-10.32-7.96-17.2.33-9.42 10.75-16.43 19.61-13.22 5.91 1.59 8.58 7.44 12.14 11.8 7.23-5.28 15.4-9.1 23.47-12.91-1.5-6.37-4.98-13.25-1.67-19.66 3.62-8.35 15.31-11.36 22.47-5.69 5.25 3.54 6.06 10.18 7.67 15.79 9.46-2.38 19.19-3.56 28.91-4.13 1.13-7.28-.59-15.96 5.14-21.68 6.01-6.64 17.8-5.86 22.88 1.53 4.82 6.24 2.12 14.41 1.97 21.55 4.91.74 9.78 1.72 14.64 2.71 6.5-5.18 13.56-9.59 20.75-13.74-1.04-7.2-4.96-14.98-1.14-21.99 3.97-8.25 15.89-10.7 22.78-4.66 4.93 3.67 5.49 10.12 6.67 15.65 5.56-1.28 11.1-2.66 16.73-3.66.8-7.2-.93-15.73 4.65-21.44m-20.9 56.1c-24.42 8.71-44.65 26.63-59.38 47.64-22.75 32.61-33.63 72.45-34.92 111.92-.31 22.46 1.77 45.13 8.15 66.74 5.22 19.56 13.48 38.39 24.81 55.19 61.76-.08 123.52.08 185.28-.08 10.46-16.67 18.91-34.66 24.1-53.68 12.47-43.95 11.28-91.76-3.63-134.97-10.24-29.22-27.22-56.79-51.8-76.05-15.78-12.15-34.91-20.49-54.9-21.83-12.8-1.22-25.54 1.37-37.71 5.12m138.32 20.12c6.07 7.29 11.32 15.21 16.23 23.31 5.98-3.35 11.66-9.18 19.13-7.82 8.83 1 15.01 10.8 12.19 19.23-2.47 8.31-11.66 10.86-17.91 15.62 3.27 7.47 5.79 15.25 8.18 23.05 4.53-1.01 9-2.26 13.55-3.16 6.58-1.34 13.64 2.55 16.25 8.7 3.53 7.4-.48 17.13-8.16 19.94-4.88 1.6-9.98 2.41-14.92 3.79 1.49 7.99 2.37 16.08 2.98 24.18 6.79.8 14.88-.09 19.97 5.45 6.54 6.31 5.21 18.29-2.57 23-4.98 3.56-11.31 2.2-16.94 1.64a273.91 273.91 0 0 1-2.81 28.86c5.93 2.07 11.44 5.14 17.17 7.71 5.46 2.3 9.22 8.08 9 14.03.05 7.18-5.83 13.77-12.96 14.59-7.28.94-13.29-4.15-19.71-6.66a229.972 229.972 0 0 1-18.39 45.9c29-.04 57.99.03 86.99-.03 1.28-2.26 2.85-4.35 4.82-6.06 7.39-6.67 14.1-14.11 19.8-22.27 8.79-11.65 14.84-25.05 19.95-38.64 4.24-12.56 6.92-25.69 7.87-38.92 2.98-38.67-9.23-78.42-34.08-108.29-6.22-6.77-12.35-13.69-19.56-19.44-13.04-10.55-28.01-18.94-44.16-23.62-19.8-6.78-41.39-7.89-61.91-4.09m-306.73 28.41c-11.2 8.4-20.65 18.94-28.63 30.4-7.44 10.21-12.58 21.86-17.4 33.47-8.03 22.29-11.32 46.47-8.32 70.03 1.4 11.27 3.53 22.49 7.08 33.3 8.17 23.45 21.89 45.12 40.48 61.69 2.08 1.6 3.85 4.46 6.83 4.07 24-.03 48.01-.02 72.01 0-4.89-8.94-8.89-18.32-12.53-27.82-4.54 1.87-9.91 2.24-14.26-.32-6.63-3.47-9.71-12.26-6.55-19.07 2.06-5.25 7.42-7.71 11.69-10.85-2.05-9.56-3.62-19.22-4.84-28.92-5.17 1.55-11.19 1.75-15.65-1.75-6.95-4.79-8.19-15.62-2.53-21.87 4.01-5.04 10.86-5.32 16.62-6.82.21-9.68.83-19.36 1.91-28.98-5.44-.81-11.62-1.54-15.23-6.23-5.99-6.7-3.95-18.42 4-22.65 5.03-3.2 11.11-1.68 16.54-.61 2.29-9.37 5.02-18.65 8.54-27.64-5.18-4.15-12.59-6.53-14.89-13.38-3.34-8.27 2.33-18.47 11.13-19.92 6.1-1.53 11.52 2.16 16.22 5.5 5.82-10.68 12.64-20.82 20.22-30.33-32.94-2.65-66.89 7.66-92.44 28.7M272.73 639.8c-5.46 11.79-4.92 25.93.97 37.45 3.38 6.86 8.05 13.78 15.26 16.99 3.67 1.89 6.29 5.55 7.2 9.56 18.79 83.7 37.64 167.39 56.47 251.08 92.08-.01 184.16.02 276.24-.01 19.22-82.27 38.35-164.56 57.57-246.82 1.09-4.21 4.12-7.56 7.47-10.17 13.01-10.4 19.35-28.69 14.89-44.84-1.25-4.58-2.6-9.46-5.76-13.1-143.43-.26-286.87.01-430.31-.14Z"/><path d="M512.5 344.73c3.49-.89 7.33-.6 10.55 1.06 4.45 2.1 6.88 6.63 9.78 10.36 4.41 5.86 3.43 14.86-2.04 19.7-5.33 5.12-14.47 5.29-19.96.34-3.13-3.26-5.91-6.93-8.13-10.87-3.88-8.02 1.17-18.52 9.8-20.59ZM441.52 348.65c8.43-2.07 17.54 4.59 18.09 13.25.85 6.79-4.2 12.03-7.05 17.66-1.97 3.95-5.11 7.51-9.45 8.84-7.03 2.58-15.52-1.19-18.44-8.05-2.33-4.89-1.43-10.76 1.53-15.18 3.96-6.33 6.97-15.02 15.32-16.52ZM481.43 372.59c8.39-2.72 18.15 3.68 18.94 12.48.26 5.88 1.08 12.59-3 17.45-5.3 7.14-16.97 7.6-22.81.88-4.52-4.58-4.21-11.4-3.95-17.34.22-6.21 4.86-11.84 10.82-13.47ZM300.4 385.6c7.93-2.25 16.86 3.27 18.4 11.36 1.55 6.3-2 12.3-6.08 16.79-4.54 4.71-12.28 5.79-17.93 2.47-6.03-3.26-9.12-10.93-7.01-17.46 2.31-5.7 6.27-11.62 12.62-13.16ZM540.46 390.68c6.12-1.78 13.21.84 16.58 6.27 1.89 3.25 3.3 6.76 4.75 10.23 2.53 6.13.26 13.75-5.16 17.54-5.04 3.78-12.45 3.82-17.51.07-4.81-3.27-6.15-9.26-8.56-14.2-3.43-7.89 1.6-17.82 9.9-19.91ZM676.41 400.6c6.92-2.89 15.6.44 18.81 7.21 2.5 5.14 6.56 10.18 5.51 16.27-.88 9.22-11.44 15.64-20.04 12.14-6.88-2.28-9.4-9.62-12.46-15.45-3.71-7.46.37-17.37 8.18-20.17ZM414.4 406.49c7.38-2.22 15.87 2.28 18.21 9.61 2.34 6.66-1.4 13.21-2.8 19.63-1.74 8.07-10.83 13.42-18.72 10.91-7.88-2.03-12.79-11.11-10.21-18.84 1.62-4.97 2.36-10.32 4.9-14.94 1.95-3.1 5.11-5.38 8.62-6.37ZM281.44 421.51c7.71-2.01 16.28 3.14 18.05 10.92 1.87 6.75-2.57 12.8-4.07 19.14-1.11 5.04-3.83 10.07-8.76 12.25-7.45 3.88-17.55-.05-20.45-7.93-2.99-7.44 1.44-14.93 3.53-21.98 1.52-5.75 5.63-11.13 11.7-12.4ZM484.26 424.39c8.41-3.31 18.73 2.65 19.89 11.63.49 6.32.06 12.67.23 19.01.38 6.08-3.34 12.12-8.96 14.48-7.4 3.48-17.04-.46-19.91-8.1-2.21-6.89-.62-14.34-1.13-21.45-.58-6.65 3.52-13.39 9.88-15.57ZM558.41 441.57c5.65-1.44 12 .73 15.51 5.4 3.31 4.26 3.33 9.91 4.64 14.93 1.13 6.73 3.92 14.29-.18 20.57-4.53 7.86-16.41 9.53-22.9 3.17-5.04-4.25-4.85-11.28-6.17-17.18-.8-4.82-2.67-9.57-2.1-14.51.78-5.9 5.43-10.99 11.2-12.38ZM695.37 450.48c8.23-2.92 18.01 2.98 19.27 11.62.75 6.9 3.74 14.31.48 20.98-3.26 6.95-12.26 10.3-19.26 7.15-5-2.04-8.58-6.95-9.11-12.31-.53-4.67-1.74-9.28-1.82-14 .25-6.07 4.61-11.69 10.44-13.44ZM402.46 469.61c8.42-2.67 18.12 3.65 18.98 12.45.26 5.67-.5 11.33-.47 17.01.17 6.64-4.62 12.93-11.04 14.58-6.53 1.95-14.06-1.35-17.17-7.38-2.64-4.68-1.57-10.23-1.52-15.33.36-4.37-.14-8.97 1.68-13.07 1.77-3.98 5.36-7.05 9.54-8.26ZM270.35 482.56c8.18-2.06 17.17 4.17 18.06 12.56.32 4.62.33 9.27.49 13.91.28 7.96-6.94 15.1-14.87 14.91-7.22.22-14.03-5.59-14.88-12.78-.44-4.69-.52-9.41-.54-14.12-.1-6.81 5.11-13.11 11.74-14.48ZM485.38 495.61c6.69-2.77 15.01.31 18.43 6.65 2.95 5.08 1.62 11.17 1.92 16.75.32 5.9-3.31 11.71-8.69 14.12-6.47 3.12-14.96.72-18.78-5.37-3.62-5.21-2.24-11.87-2.5-17.8-.24-6.2 3.8-12.22 9.62-14.35ZM698.39 501.56c8.86-2.28 18.46 5.3 18.2 14.47-.48 7.04-1.92 13.99-3.31 20.9-.87 5.22-4.54 9.9-9.55 11.72-7.51 3.08-16.88-1.25-19.42-8.94-1.96-4.82-.07-9.9.78-14.72.84-3.96 1.14-8 1.91-11.96 1.07-5.65 5.81-10.27 11.39-11.47ZM565.49 518.64c8.18-2.28 17.35 3.85 18.38 12.27.43 6.37-.52 12.74-1.02 19.09-.57 5.12-.42 10.84-3.96 15-4.59 5.99-13.85 7.43-20.03 3.11-4.59-3.01-7.26-8.67-6.56-14.12.81-7.35 1.48-14.71 1.86-22.09.37-6.27 5.25-11.83 11.33-13.26ZM404.32 530.38c5.82-1.57 12.55.12 16.29 5.01 4.55 5.87 3.47 13.79 5.36 20.61 1.98 6.66-.99 14.52-7.21 17.8-6.32 3.68-15.11 1.75-19.34-4.21-3.03-3.87-3.23-8.95-4.19-13.56-.68-4.28-1.8-8.58-1.45-12.94.48-5.88 5-10.97 10.54-12.71ZM279.19 534.26c6.98-1.34 14.49 3.1 16.65 9.88 2.25 7.11 5.07 14.03 8.34 20.73 3.23 6.51.7 15.09-5.48 18.87-5.24 3.5-12.68 3.09-17.53-.93-3.56-2.77-5.03-7.2-6.88-11.13-2.78-6.42-5.49-12.92-7.28-19.69-1.88-7.98 4.11-16.55 12.18-17.73ZM485.39 554.53c8.87-2.3 18.45 5.24 18.23 14.4-.26 5.83 1.19 12.27-2.15 17.49-3.54 6.06-11.62 8.8-18.13 6.19-5.94-2.17-9.98-8.37-9.65-14.68.16-4.72-.67-9.64.98-14.16 1.74-4.62 5.9-8.19 10.72-9.24ZM678.21 561.25c6.82-2.58 15.1.83 18.29 7.34 2.47 4.71 2.05 10.61-.79 15.08-3.37 5.42-5.69 12.25-11.71 15.34-6.22 3.36-14.62 1.46-18.79-4.24-3.79-4.84-4.12-12.08-.65-17.18 4.01-5.81 6.14-14.04 13.65-16.34ZM325.15 692.25c40.92-.31 81.86-.01 122.79-.15 4.67-.28 9.73.29 13.33 3.59 6.05 4.91 7.05 14.64 2.08 20.66-2.89 3.73-7.58 5.91-12.3 5.73-41.68-.03-83.37.03-125.05-.02-7.78-.1-14.49-7.3-14.21-15.04-.14-7.37 6-14.18 13.36-14.77ZM484.37 694.53c5.01-1.64 10.39-.62 15.56-.9 5.57-.34 11.19 2.6 13.92 7.49 3.41 5.71 2.34 13.62-2.48 18.21-3.2 3.25-7.86 4.58-12.33 4.29-5.81-.31-12.24 1.08-17.41-2.32-6.16-3.68-8.78-12.08-5.83-18.62 1.59-3.74 4.76-6.75 8.57-8.15Z"/></g></svg>