<svg xmlns="http://www.w3.org/2000/svg" viewBox="0 0 1000 1000" style="max-width:100%"><g fill="currentColor"><path d="M455.72 33.74c4.91-7.89 17.32-8.87 23.43-1.88 4.82 4.81 3.99 12.06 4.77 18.26 16.17-.56 32.44.84 48.29 4.13 1.36-4.52 2.62-9.54 6.77-12.37 6.71-5.39 17.65-3.25 21.88 4.23 3.17 4.84 2.27 10.93.4 16.07 17.44 6.16 34.11 14.51 49.41 24.89 4.1-4.81 7.52-11.39 14.4-12.46 8.79-2.08 18.06 5.31 17.98 14.33.46 6.83-4.99 11.62-8.76 16.58a247.908 247.908 0 0 1 29.7 32.91c5.69-3.11 11.03-8.45 18.06-7.49 9.28.64 15.91 11.04 12.65 19.75-2.07 6.79-9.16 9.48-14.61 12.96 8.01 14.83 14.14 30.6 18.87 46.77 6.2-.76 12.93-3.64 18.86-.21 8.36 4.01 10.69 16.17 4.46 23.02-4.15 5.27-11.3 5.38-17.31 6.65 3.01 21.81 2.73 44.07-.78 65.8 5.06.38 10 1.77 14.84 3.27 7.71 2.85 11.65 12.68 8.01 20.08-2.65 6.06-9.66 9.85-16.18 8.54-4.45-.96-8.9-2.02-13.2-3.52-6.07 20.27-15.1 39.64-26.65 57.37 6.27 3.18 13.42 7.9 14.15 15.58 1.23 7.96-5.09 15.97-13.08 16.71-7.45 1.07-13.45-4.49-18.26-9.37-11.15 13.07-23.97 24.65-37.77 34.86 2.72 4.8 5.85 9.38 8.42 14.27 3.32 6.89.13 15.9-6.66 19.33-6.31 3.53-15 1.54-19.11-4.41-2.88-4.36-5.46-8.92-8.1-13.42-11.84 6.35-24.37 11.23-37.06 15.57 1.41 6.94 5.13 14.53 1.52 21.41-3.76 8.16-15.29 10.91-22.33 5.33-6.53-4.61-6.29-13.32-8.36-20.25-8.35 1.03-16.73 1.78-25.1 2.64.02 40.07 0 80.14 0 120.21 68.26 0 136.52.02 204.77-.01 4.08-.02 7.89 1.7 11.92 2.12 7.07 1.43 10.81 8.24 14.08 13.99 17.59 28.19 11.81 68.09-12.3 90.75-1.27 1.33-3.02 2.46-3.54 4.33-19.29 82.51-38.48 165.05-57.74 247.57-.91 4.44-4.5 7.46-7.16 10.88-2.91 3.63-7.62 5.55-12.23 5.34-96.37-.02-192.74-.01-289.11-.01-5.25.19-11.12.29-15.25-3.51-3.23-3.2-6.27-6.97-7.42-11.44-19.06-84.34-37.88-168.73-57-253.06-6.38-4.21-11.29-10.21-15.92-16.2-2.7-3.22-3.88-7.35-6.19-10.83-10.44-21.58-9.56-48.3 2.65-69 2.18-4.26 6.4-7.45 11.2-7.99 3.8-.41 6.98-3.15 10.91-2.9 66.13-.06 132.25-.01 198.38-.03.01-40.38.01-80.76 0-121.13-7.31-.82-14.59-1.83-21.82-3.14-2.22 6.68-2.15 15.03-8.37 19.56-7.13 5.8-19.01 2.89-22.64-5.56-3.53-7.15.73-14.72 2.03-21.87-11.84-4.4-23.5-9.38-34.39-15.8-3.04 4.8-5.74 10.67-11.63 12.47-8.68 3.39-19.17-3.18-19.91-12.45-1.03-6.39 3.52-11.43 6.47-16.56-13.06-10.08-25.21-21.42-35.61-34.24-5.42 3.72-10.24 9.69-17.39 9.57-9.15.42-16.93-8.9-14.87-17.85 1.28-7.92 9.31-11.35 14.77-16.07-8.41-13.69-15.44-28.27-20.65-43.48-5.94 1.66-12.37 4.84-18.46 1.91-8.63-3.36-11.91-15.27-6.22-22.58 3.74-5.57 10.87-6.2 16.69-8.26-4.08-20-5.29-40.55-3.85-60.9-5.36-.38-10.9-2.66-13.66-7.52-4.31-6.65-2.02-16.35 4.74-20.45 3.87-2.67 8.77-2.54 13.24-1.93 3.15-15.22 8.11-30.02 14.36-44.25-5.15-2.68-11.34-5.08-13.49-11.02-3.8-8.46 2.16-19.24 11.33-20.49 5.98-1.3 11.17 2.45 16.19 5.03 7.98-12.36 16.71-24.35 27.04-34.88-3.85-4.32-8.91-8.62-8.86-14.93-.73-9.19 8.51-17.34 17.55-15.42 5.96.77 9.62 5.89 13.34 10.03 7.56-6.33 15.69-11.93 24.17-16.97-2.6-6.29-7.85-12.36-5.95-19.62 1.75-8.96 12.62-14.44 20.84-10.32 6.78 2.84 8.61 10.53 11.91 16.37 15.27-6.7 31.46-11.21 47.86-14.11-.32-6.41-2.45-13.6 1.64-19.28m16.83 47.1c-32.1 2.86-63.15 14.78-89.53 33.18-6.07 4.53-11.92 9.36-17.64 14.32-38.11 34.21-61.06 84.46-62.42 135.62-1.6 45.23 13.51 90.85 41.94 126.09 22.87 28.5 54.24 50.06 89.02 61.25 19.75 6.07 40.49 8.83 61.13 8.55 11.89-1.03 23.86-1.91 35.56-4.4 34.88-7.73 67.27-26.07 92.2-51.62 23.98-24.52 41.12-55.67 48.97-89.06 10.3-42.29 5.42-87.97-13.28-127.24-14.9-31.34-38.42-58.62-67.53-77.56-34.74-22.52-77.16-33.27-118.42-29.13M272.73 639.81c-4.23 9.37-5.06 20.27-1.91 30.1 2.69 8.63 7.42 17.07 14.78 22.54 4.66 2.02 9.13 5.41 10.36 10.6 18.93 83.94 37.76 167.9 56.67 251.84 92.08-.02 184.16.01 276.24-.02 19.22-82.26 38.35-164.54 57.57-246.8 1.09-4.22 4.12-7.58 7.49-10.19 13.01-10.43 19.35-28.74 14.85-44.9-1.24-4.57-2.6-9.4-5.73-13.05-143.43-.24-286.88.01-430.32-.12Z"/><path d="M457.44 100.52c7.95-2.29 16.94 3.26 18.45 11.39 1.62 6.47-2.5 12.17-5.28 17.63-3.05 6.29-10.87 9.74-17.54 7.59-7.17-1.9-12.01-9.7-10.6-16.98.84-4.15 3.43-7.65 5.18-11.44 1.84-4.02 5.52-7.08 9.79-8.19ZM511.37 104.45c4.22-1.67 9.2-1.31 13.1 1.04 3.82 2.12 5.79 6.2 8.42 9.51 3.51 5.14 8.61 10.25 7.8 17.02-.42 9.39-10.93 16.35-19.74 13.02-5.62-1.62-8.43-7.05-11.6-11.46-2.92-4.21-6.96-8.18-7.39-13.56-.83-6.54 3.25-13.26 9.41-15.57ZM583.34 131.5c6.02-2.53 13.6-.53 17.47 4.76 2.27 3.46 4.23 7.12 6.14 10.79 3.44 7.34-.52 16.89-8.07 19.76-6.86 3.04-15.54-.16-18.94-6.81-2.34-4.47-5.83-8.73-5.96-14-.36-6.18 3.6-12.26 9.36-14.5ZM395.33 135.54c7.71-3.43 17.54 1.11 19.96 9.17 2.29 6.26-1.1 12.43-3.2 18.2-2.82 7.28-11.92 11.09-19.12 8.12-7.06-2.53-11.32-10.9-9.03-18.08 2.22-6.58 4.05-14.76 11.39-17.41ZM492.37 167.63c8.89-2.43 18.66 5.05 18.45 14.29-.26 5.68 1.09 11.84-1.78 17.06-3.06 5.85-10.27 9.09-16.68 7.43-6.17-1.39-11.11-7.08-11.41-13.43-.15-4-.14-8.01.02-12 .33-6.33 5.27-11.94 11.4-13.35ZM430.3 168.3c9.14-3.71 20.24 3.86 20.09 13.72-.39 6.43-2.53 12.61-3.41 18.99-.82 6.59-6.38 12.16-12.99 12.9-6.78.98-13.81-3.34-16.02-9.83-1.85-4.77-.16-9.84.66-14.64.89-4.06 1.56-8.17 2.71-12.16 1.43-4.15 4.85-7.5 8.96-8.98ZM553.42 182.67c5.29-1.99 11.63-.7 15.67 3.28 4.02 3.82 4.75 9.61 6.55 14.6 1.23 4.92 3.75 9.8 2.82 15-1.05 6.5-6.83 11.86-13.41 12.33-6.28.68-12.74-3.12-15.11-8.99-1.46-3.73-2.26-7.68-3.56-11.46-1.22-4.03-3.21-8.07-2.62-12.4.56-5.51 4.47-10.46 9.66-12.36ZM342.46 192.64c6.41-2.12 14.01.75 17.36 6.63 2.31 3.62 2.52 8.16 1.52 12.25-1.75 7.72-2.35 15.62-3.7 23.4-1.33 6.71-7.81 11.89-14.65 11.73-6.1.1-11.93-3.98-14.01-9.69-1.54-3.79-.81-7.96-.29-11.87 1.19-7.35 2.06-14.75 3.8-21.99 1.21-4.92 5.15-8.97 9.97-10.46ZM612.4 197.65c7.41-2.53 16.28 1.83 18.67 9.3 2.7 9.52 4.87 19.2 6.47 28.97 1.05 5.51-1.38 11.43-5.94 14.67-4.58 3.41-11.16 3.8-16.12.97-3.92-2.15-6.75-6.13-7.46-10.54-1.15-6.4-2.33-12.79-3.98-19.08-.92-3.96-2.55-7.94-1.93-12.08.71-5.6 4.91-10.53 10.29-12.21ZM379.21 214.27c6.81-2.26 14.86 1.18 17.91 7.67 2.47 4.66 1.2 10.05 1.15 15.06-.46 5.57.82 11.75-2.53 16.66-4.06 6.67-13.63 9.02-20.27 4.83-4.34-2.52-7.27-7.36-7.33-12.4-.05-6.3.25-12.61.64-18.9.43-5.91 4.78-11.22 10.43-12.92ZM495.37 229.5c9.13-2.9 19.46 4.91 18.99 14.51-.43 6.18 1.2 12.86-1.65 18.65-3.12 6.33-11.09 9.73-17.8 7.44-6.05-1.79-10.54-7.75-10.5-14.07-.03-4.32-.05-8.65.06-12.96.21-6.27 4.88-11.95 10.9-13.57ZM567.39 253.59c8.4-3.56 18.94 2.53 20.08 11.57.6 6.57.73 13.2.69 19.81-.04 7.86-7.34 14.68-15.17 14.34-7.65.08-14.61-6.61-14.7-14.28-.1-5.68-.27-11.36-.55-17.04-.31-6.23 3.81-12.27 9.65-14.4ZM425.48 257.68c8.16-2.52 17.55 3.36 18.76 11.83.51 5.79 2.5 11.99-.12 17.55-2.75 6.23-10.09 9.96-16.74 8.4-5.8-1.18-10.66-6.08-11.6-11.96-.56-3.8-1.06-7.63-1.24-11.48-.15-6.54 4.66-12.67 10.94-14.34ZM337.34 269.5c6.48-2.76 14.67-.13 18.3 5.92 2.66 3.98 2.29 8.95 3.04 13.48.58 5.6 2.88 11.53.41 17-2.75 7.05-11.26 10.9-18.41 8.49-5.12-1.61-9.2-6.14-10.12-11.44-1.07-6.28-2.11-12.57-2.55-18.93-.43-6.18 3.58-12.28 9.33-14.52ZM383.29 286.43c6.05-2.33 13.44-.16 17.23 5.1 2.91 3.74 2.99 8.67 4.17 13.08 1.24 5.97 4.29 12.32 1.41 18.31-3.37 8.49-15.03 11.83-22.35 6.32-5.82-3.75-6.51-11.1-8.1-17.2-.89-4.29-2.35-8.58-2.07-13 .47-5.62 4.43-10.7 9.71-12.61ZM620.34 287.5c6.71-2.86 15.19.08 18.65 6.5 3.23 5.31 1.45 11.7 1.13 17.49-.48 7.18-6.88 13.3-14.05 13.53-6.26.47-12.48-3.49-14.75-9.32-1.98-4.7-.65-9.85-.39-14.73.19-5.83 3.96-11.36 9.41-13.47ZM497.42 304.7c8.48-3.98 19.48 2.04 20.67 11.32.41 6.3.13 12.64.16 18.95.01 8.65-8.74 15.81-17.22 14.25-7.25-.97-13.05-7.85-12.71-15.17.21-6.41-.5-12.91.46-19.27 1.13-4.46 4.4-8.29 8.64-10.08ZM562.32 325.38c7.47-3.08 16.8 1.25 19.39 8.87 2.17 5.5-.25 11.23-1.32 16.67-1.64 5.91-2.2 12.99-7.66 16.82-6.97 5.62-18.48 3.03-22.35-5.04-2.82-4.88-1.46-10.61.08-15.65 1.35-4.6 1.79-9.45 3.55-13.93 1.6-3.54 4.67-6.37 8.31-7.74ZM443.43 327.56c6.82-1.36 14.22 2.69 16.62 9.23 2.08 5.72 5.83 11.67 3.64 17.95-2.35 8.76-13.45 13.46-21.34 8.91-6.36-3.08-7.95-10.49-10.38-16.46-3.2-8.29 2.73-18.29 11.46-19.63ZM357.39 343.62c6.87-2.84 15.53.36 18.76 7.08 2.59 5.74 6.82 11.72 4.88 18.34-1.96 8.87-12.86 14.08-20.96 9.85-6.23-2.68-8.18-9.63-10.88-15.22-3.64-7.45.46-17.24 8.2-20.05ZM607.41 357.63c5.93-1.78 12.79.56 16.35 5.64 2.96 4.05 3.66 9.58 1.88 14.27-1.98 5.27-3.28 11.52-8.46 14.67-7.59 5.37-19.42 1.55-22.34-7.29-2.54-6.02.68-12.12 2.61-17.77 1.48-4.57 5.36-8.19 9.96-9.52ZM420.29 378.3c4.52-1.65 9.82-.97 13.75 1.84 3.59 2.45 5.31 6.61 7.76 10.05 3.19 4.83 7.81 9.58 7.15 15.87-.2 9.18-10.09 16.36-18.88 13.65-6.47-1.47-9.61-7.74-13.08-12.72-2.7-4.38-6.52-8.57-6.56-14.01-.36-6.36 3.86-12.58 9.86-14.68ZM542.34 385.37c6.3-2.56 14.1-.07 17.8 5.63 2.84 4.15 3.37 9.78 1.28 14.38-2.55 5.66-5.41 11.19-8.4 16.64-3.69 6.75-13.01 9.4-19.74 5.72-6.91-3.33-10.17-12.44-6.84-19.37 2.41-4.89 5.12-9.63 7.33-14.62 1.61-3.78 4.68-6.95 8.57-8.38ZM480.38 396.52c3.63-.99 7.66-.67 11 1.11 4.37 2.18 6.68 6.71 9.74 10.29 4.88 5.88 4.06 15.41-1.73 20.4-5.54 5.23-15.04 5.1-20.41-.31-3.12-3.6-6.41-7.25-8.46-11.59-3.34-7.89 1.59-17.77 9.86-19.9ZM325.18 692.25c42.27-.28 84.56-.08 126.84-.1 8.53-.07 15.72 8.39 14.42 16.8-.78 7.12-7.25 13.12-14.45 13.1-41.67.07-83.33-.01-124.99.05-5.99.23-11.81-3.62-14.05-9.15-4.1-8.77 2.57-20.09 12.23-20.7ZM484.33 694.54c5.06-1.67 10.49-.61 15.72-.91 5.3-.29 10.63 2.38 13.45 6.91 3.51 5.32 3.02 12.88-1.14 17.71-2.98 3.64-7.73 5.6-12.4 5.36-7.15-.19-15.71 1.42-21.11-4.54-7.56-7.16-4.41-21.27 5.48-24.53Z"/></g></svg>