<svg xmlns="http://www.w3.org/2000/svg" viewBox="0 0 1000 1000" style="max-width:100%"><g fill="currentColor"><path d="M463.28 12.35c4.98-7.63 17.04-8.52 23.11-1.73 3.45 3.2 3.81 8.02 4.81 12.32 1.83-3.38 2.5-7.53 5.65-10.07 5.97-5.84 16.69-5.11 21.8 1.5 3.94 4.55 3.92 11.03 2.48 16.57 3.87 2.23 8 3.97 11.86 6.23 14.69 9.65 27.11 22.93 35.17 38.6 4.31 8.05 7.06 16.84 9.3 25.67 1.96 7.7 1.45 15.72 1.9 23.59.32 10.94-2.76 21.62-6.44 31.81-1.79 4.76-3.18 9.74-6 14.03-8.29 14.15-19.52 26.81-33.52 35.5-13.54 9.12-29.47 14.36-45.68 15.91-.01 21.46 0 42.92-.01 64.37 6.18-.09 12.49-3.17 18.55-.75 6.69 2.44 10.85 10.04 9.3 17-1.04 5.28-5.14 9.85-10.33 11.33-5.71 1.53-11.64 2-17.51 2.48-.01 22.89 0 45.78 0 68.67 6.63-.31 13.24-.89 19.85-1.54-1.78-5.45-4.04-10.96-3.96-16.79.3-7.84 7.61-14.43 15.43-14.05 6.34.15 12.4 4.73 13.91 10.96 1.04 4.63 2.56 9.13 4.24 13.56 15.88-4.57 30.82-12.1 44.62-21.14-3.83-7.08-6.74-14.64-8.84-22.4-4.88-20.4-2.18-42.55 8.01-60.94 6.52-12.53 16.27-23.29 28.06-31.05 19.48-13.37 44.58-18 67.62-12.97-.12-6.83 4.45-13.5 11.19-15.19 6.71-1.93 14.44 1.54 17.39 7.89 1.74 3.21 1.54 6.96 1.4 10.49 5.68-3.39 13.43-2.72 18.18 1.97 3.87 3.5 5.21 8.97 4.49 14.02 8.99-2.97 19.36 4.19 19.42 13.71.99 7.4-3.74 14.71-10.83 16.98 6.28 12.68 7.42 27.09 7.13 41.03.05 8.05-2.56 15.77-4.78 23.41-5.78 13.75-14.17 26.66-25.62 36.36-13.42 11.24-30.31 17.97-47.61 20.16-14.1.88-28.67-.33-41.74-6.05-8.9-3.13-16.74-8.54-24.03-14.41a215.716 215.716 0 0 1-27.04 15.84c4.18 3.01 8.52 5.81 12.59 8.99 6.31 5.23 6.72 15.74.95 21.52-4.85 5.32-13.61 6.22-19.43 2-5.17-3.77-11.13-6.86-14.61-12.44-3.21-2.57-6.5-5.1-8.78-8.6-18.45 6.19-37.94 7.69-57.25 8.76.07 45.84.04 91.68.02 137.52 9.21-1.58 18.48 1.22 27.76.56-.06-3.22-.33-6.43-.72-9.62-.66-8.79.99-17.53 2.92-26.06 1.44-6.5 7.64-11.62 14.35-11.51 6.58-.32 12.89 4.41 14.64 10.72 1.59 5.15-.55 10.36-1.37 15.44-.85 5.67-1.21 11.52.08 17.16 26.68-5.3 51.57-18.53 71.66-36.78-1.52-16.96 1.44-34.49 9.68-49.49-6.46-2.11-11.39-8.44-10.89-15.38.28-7.77 7.38-14.53 15.2-14.17 5.89.26 12.04.32 17.48 2.89 6.86-5.23 14.71-8.88 22.25-13 15.48-6.55 32.89-8.15 49.4-5.23 6.4 1.16 12.34 3.89 18.55 5.75 3.98 1.2 7.68 3.34 10.56 6.38 1.79-4.03 4.71-7.79 8.98-9.35 6.76-2.85 15.28.2 18.68 6.71 2.18 3.68 2.15 8.15 1.15 12.19 4.17-.53 8.66-.06 12.1 2.59 7.85 5.44 8.32 17.99 1.77 24.64 7.95.35 14.87 7.53 14.37 15.58-.04 7.94-7.18 14.52-15 14.62-1.28 5.48.3 11.06-.59 16.56-1.78 8.09-2.95 16.43-6.65 23.95-3.73 8.66-9.24 16.43-14.99 23.83-9.93 8.68-20.42 17.21-32.73 22.28-4.59 1.85-9.45 2.86-14.21 4.18-9.83 2.66-20.07.95-30.07.93-4.16.02-8.06-1.44-11.95-2.66-14.17-3.4-26.91-11.42-37.45-21.32-6.65-6.04-11.6-13.6-15.96-21.38-10.25 8.03-21.38 14.92-33.05 20.7 4.33 3.08 9.65 5.66 11.63 10.97 3.08 7.04-.39 15.94-7.32 19.17-5.11 2.61-11.47 1.73-15.96-1.71-6.68-4.79-14.17-9.43-18.09-16.92-6.38 2.35-13.2 2.82-19.78 4.36-9.91 2.12-20.1 2.17-30.16 3-8.78-.12-17.6-.62-26.28-1.94.06 9.42.01 18.84.02 28.26 72.07-.01 144.13.02 216.2-.01 4.42.13 8.64 1.68 12.99 2.36 6.55 1.83 9.96 8.25 13.12 13.72 17.47 27.98 11.94 67.51-11.75 90.26-1.68 1.72-3.96 3.24-4.33 5.82-18.69 80.35-37.47 160.68-56.17 241.02-.96 3.95-1.47 8.29-4.28 11.46-2.8 3.14-5.12 7.01-9.07 8.84-3.83 2-8.25 1.41-12.39 1.5-96.68-.04-193.36.02-290.03-.03-8.31-.03-14.34-7.6-16.69-14.87-19.08-84.36-37.88-168.78-57.03-253.12-6.92-4.65-12.24-11.26-17.14-17.9-4-7.25-8.22-14.58-9.82-22.81-4.7-17.51-2.4-36.75 6.09-52.75 2.21-4.86 6.07-9.54 11.65-10.36 4.46-.5 8.29-3.52 12.9-3.13 61.94.01 123.87 0 185.81 0-.01-22.95-.01-45.9 0-68.86-9.35 1.05-18.76.56-28.09-.47-8.03 10.67-18.02 20.06-29.97 26.17-5.21 2.52-11.84 1.49-16.12-2.36-5.71-4.79-6.72-13.98-2.32-19.96 3.42-4.53 9.07-6.44 13.3-10.07-37.63-10.62-71.49-33.7-95.49-64.52-5.08 7.21-11.15 13.72-18.08 19.18-6.94 5.12-14.2 10.09-22.54 12.63-11.68 3.75-23.99 6.85-36.36 5.7-29.22-1.13-57.24-18.45-71.53-43.92-3.55-5.39-5.57-11.55-7.31-17.7-4.49-14.74-5.17-30.75-1.19-45.67-4.42-1.45-8.55-4.3-10.38-8.72-3.17-6.78-.27-15.6 6.33-19.13 3.75-2.29 8.32-2.14 12.52-1.64-3.3-5.84-2.3-13.75 2.68-18.33 4.79-4.74 12.86-5.55 18.45-1.74-4.7-7.6-1.01-18.64 7.44-21.66 8.12-3.47 17.76 1.8 20.16 10.07 11.55-3.23 23.63-5.5 35.65-4.05 15.79 1.21 30.81 7.54 43.78 16.42 15.32 11.61 27.23 28.03 32.17 46.72 3.77 12.6 3.99 26.02 1.99 38.95 5.27 7.97 10.51 16.01 17.01 23.07 7.56 8.07 15.73 15.59 24.69 22.09.24-5.04.24-10.12-.7-15.09-1.36-5.93 1.29-12.48 6.44-15.73 6.04-4.16 14.95-2.84 19.59 2.81 2.97 3.25 3.63 7.78 4.16 11.98 1.33 10.67.51 21.53-1.88 31.99 8.68 3.75 17.63 6.89 26.82 9.12 10.43 2.88 21.31 3.29 32.03 4.29 5.58.59 11.17-.2 16.75-.56-.01-11.89-.01-23.79 0-35.68-7.34-2.2-13.39-7.17-19.28-11.86-3.9-2.92-6.78-7.41-6.73-12.4-.35-7.5 5.81-14.51 13.27-15.19 4.75-.69 9.34 1.44 12.79 4.57-.13-22.48-.02-44.95-.06-67.43-6.27.26-12.51-.36-18.75-.83-.33 6.24-4.49 11.19-7.81 16.16-4.1 5.03-8.06 11.5-15.1 12.43-8.73 1.72-17.64-5.83-17.4-14.71-.27-8.59 8.08-13.33 11.48-20.4-19.75-6.51-37.65-18.2-52.2-33.01-18.85 9.19-40.96 10.87-61.19 5.71-7.75-1.82-14.86-5.53-21.74-9.41-5.3-3.15-10.67-6.35-15.03-10.76-7.8-7.8-14.89-16.54-19.45-26.66-5.57-10.54-7.08-22.63-8.07-34.35-.85-8.45.76-16.84 2.97-24.96-4.82-.76-9.57-3.24-11.96-7.65-4.03-6.62-1.75-16.08 4.87-20.11 4.21-2.89 9.61-2.74 14.39-1.61-2.93-6.04-1.54-13.87 3.7-18.18 4.47-3.96 11.15-4.56 16.5-2.11-2.46-8.64 3.93-18.39 12.99-19.02 6.87-1.17 13.84 2.56 16.88 8.79 12.09-3.17 24.75-5.22 37.24-3.5 7.82.52 15.11 3.53 22.54 5.73 5.24 1.62 9.17 5.72 14.25 7.71 4.29 1.69 7.26 5.32 10.81 8.09 8.54 7.02 14.85 16.28 20.3 25.79 4.08 7.42 5.31 15.91 7.8 23.91 1.66 4.87.33 10.06 1.29 15.04 1.13 6.22-2.3 11.92-2.43 18.04 0 4.88-2.25 9.28-3.89 13.76-4.09 10.41-10.37 19.88-18.02 28.01 19.94 18.92 47.55 29.27 75.02 28.06.03-40.65.01-81.29.01-121.94-10.54-2.35-21.05-5.58-30.22-11.41-9.24-5.82-18.72-11.81-25.77-20.3-12.47-14.09-21.5-31.57-24.18-50.3-2.89-14.15-1.83-28.89 1.8-42.8 2.93-12.18 9.31-23.19 16.04-33.63 9.6-12.21 21.31-23.04 35.41-29.85-1.52-4.7-1.53-10.13 1.42-14.3 4.22-6.79 14.17-8.83 20.73-4.28 3.46 2.03 5.2 5.76 6.82 9.24 1.32-3.6.84-7.84 3.47-10.94m5.21 39.49c-9.01 1.61-18.16 3.71-26.04 8.58-8.62 4.26-15.47 11.19-21.7 18.36-2.86 3.63-4.97 7.78-7.16 11.83-5.67 10.1-7.71 21.88-7.7 33.35.5 6.98 1.78 13.92 3.68 20.65 3.98 10.93 10.3 21.1 18.84 29.04 6.2 4.95 12.8 9.48 19.89 13.07 22.16 9.61 49.39 7.86 69.45-5.94 10.11-6.38 18.12-15.78 23.86-26.2 2.41-5.14 4.04-10.62 5.78-16.01 2.73-8.29 1.78-17.13 1.56-25.69-2.5-19.05-13.16-36.88-28.8-48.05-4.04-2.79-8.48-4.9-12.77-7.25-6.21-3.44-13.28-4.78-20.23-5.76-6.17-1.04-12.5-1.01-18.66.02M313.58 198.78c-8.03.59-15.8 3.07-22.75 7.08-8.02 4.33-14.16 11.32-19.59 18.48-4.73 7.39-7.37 15.99-8.77 24.61-.53 8.26.88 16.58 2.96 24.55 4.77 12.31 13.38 23.64 25.28 29.76 19.47 12.03 46.39 10.2 64.27-4.01 11.09-8.4 19.46-21.27 20.56-35.34.95-5.57 1.42-11.26.61-16.88-1.36-7.81-3.08-15.85-7.97-22.31-6.62-11.19-17.98-18.49-29.78-23.26-7.84-3.18-16.49-3.93-24.82-2.68m336.95 58.84c-17.82 2.04-34.46 13.15-42.84 29.05-7.65 13.43-9.31 30.19-4.16 44.78 3.42 10.91 10.65 20.4 19.82 27.15 11.93 9.4 27.79 12.94 42.73 11.13 12.26-2.16 24.33-7.41 32.99-16.55 4.97-5.04 8.55-11.21 11.8-17.44 5.26-11.28 5.01-24.17 2.75-36.17-1.97-7.03-5.12-13.79-9.59-19.59-5.66-8.07-14.05-13.7-22.67-18.2-9.71-3.9-20.41-5.8-30.83-4.16M215.45 365.77c-21.47 3.55-39.55 21.21-44.46 42.3-3.19 11.44-1.18 23.56 2.67 34.57 9.36 22.81 34.83 37.69 59.31 34.51 6.75-1.16 13.5-2.71 19.79-5.47 8.62-4.59 16.36-11.06 21.79-19.23 4.64-6.22 6.59-13.88 8.67-21.22 3.53-18.29-3-38.11-16.59-50.84-6.7-7.09-15.92-10.93-24.98-14.03-8.52-2.31-17.59-2.65-26.2-.59m480.07 81.95c-4.68.72-9.34 1.94-13.57 4.11-7.46 3.86-15.56 7.42-20.78 14.31-16.27 17.19-19.33 45.34-6.96 65.56 5.73 10.66 15.55 18.64 26.41 23.69 8.97 3.74 18.82 4.49 28.45 4.56 4.5.09 8.8-1.44 13.1-2.56 6.52-1.73 11.99-5.87 17.32-9.82 2.95-2.4 6.23-4.51 8.6-7.54 4.93-6.67 9.59-13.9 11.23-22.17 2.67-12.36 2.05-25.87-3.81-37.26-2.28-6.47-6.94-11.64-11.12-16.94-2.89-3.66-7.32-5.43-11.11-7.93-11.06-7.19-24.72-10.18-37.76-8.01M272.76 639.77c-5.6 12-4.91 26.44 1.24 38.08 3.32 6.64 7.96 13.24 14.92 16.39 3.71 1.87 6.32 5.55 7.24 9.57 18.8 83.7 37.64 167.39 56.47 251.08 92.08-.02 184.16.01 276.24-.02 18.64-79.79 37.21-159.6 55.83-239.4 1.04-4.04 1.42-8.4 3.8-11.95 1.65-2.61 4.1-4.53 6.43-6.5 12.09-10.29 18.01-27.59 14.08-43.06-1.29-4.88-2.57-10.23-6.05-14-32.32-.29-64.67-.04-97.01-.12-111.06-.04-222.13.08-333.19-.07Z"/><path d="M325.2 692.25c41.6-.32 83.22-.01 124.83-.15 4.99-.34 10.16 1.65 13.25 5.67 4.31 5.22 4.34 13.35.05 18.6-2.89 3.74-7.61 5.89-12.33 5.71-41.68-.03-83.36.04-125.03-.03-7.78-.1-14.47-7.31-14.18-15.05-.12-7.38 6.03-14.19 13.41-14.75ZM484.4 694.51c5.04-1.59 10.43-.63 15.64-.88 5.77-.34 11.54 2.91 14.14 8.09 3.16 5.9 1.7 13.8-3.4 18.15-3.16 2.92-7.56 3.99-11.77 3.75-5.82-.29-12.25 1.06-17.42-2.35-6.58-3.93-9-13.23-5.16-19.87 1.7-3.18 4.61-5.63 7.97-6.89Z"/></g></svg>